<svg width="32" height="32" viewBox="0 0 32 32" fill="none" xmlns="http://www.w3.org/2000/svg">
<rect width="32" height="32" rx="16" fill="white"/>
<path d="M24.4 7.59995V24.4H7.59995V7.59995H24.4ZM24.4 5.19995H7.59995C6.27995 5.19995 5.19995 6.27995 5.19995 7.59995V24.4C5.19995 25.7199 6.27995 26.7999 7.59995 26.7999H24.4C25.7199 26.7999 26.7999 25.7199 26.7999 24.4V7.59995C26.7999 6.27995 25.7199 5.19995 24.4 5.19995Z" fill="black"/>
<path d="M15.5499 11.4625V17.5544C14.8802 17.1696 14.0537 17.02 13.1773 17.3264C12.2226 17.6683 11.4887 18.5162 11.3177 19.5137C11.2386 19.9626 11.2682 20.4238 11.4039 20.8589C11.5395 21.294 11.7774 21.6902 12.0976 22.0146C12.4177 22.3389 12.8109 22.5819 13.2441 22.7232C13.6774 22.8645 14.1382 22.9001 14.5881 22.8269C15.9846 22.606 16.9749 21.3235 16.9749 19.9056V12.8875H18.3999C19.1837 12.8875 19.8249 12.2462 19.8249 11.4625C19.8249 10.6787 19.1837 10.0375 18.3999 10.0375H16.9749C16.1912 10.0375 15.5499 10.6787 15.5499 11.4625Z" fill="black"/>
</svg>
