<svg width="148" height="32" viewBox="0 0 148 32" fill="none" xmlns="http://www.w3.org/2000/svg">
<path d="M47.701 24.168C46.533 24.168 45.477 23.968 44.533 23.568C43.605 23.168 42.869 22.592 42.325 21.84C41.781 21.088 41.501 20.2 41.485 19.176H45.085C45.133 19.864 45.373 20.408 45.805 20.808C46.253 21.208 46.861 21.408 47.629 21.408C48.413 21.408 49.029 21.224 49.477 20.856C49.925 20.472 50.149 19.976 50.149 19.368C50.149 18.872 49.997 18.464 49.693 18.144C49.389 17.824 49.005 17.576 48.541 17.4C48.093 17.208 47.469 17 46.669 16.776C45.581 16.456 44.693 16.144 44.005 15.84C43.333 15.52 42.749 15.048 42.253 14.424C41.773 13.784 41.533 12.936 41.533 11.88C41.533 10.888 41.781 10.024 42.277 9.288C42.773 8.552 43.469 7.992 44.365 7.608C45.261 7.208 46.285 7.008 47.437 7.008C49.165 7.008 50.565 7.432 51.637 8.28C52.725 9.112 53.325 10.28 53.437 11.784H49.741C49.709 11.208 49.461 10.736 48.997 10.368C48.549 9.984 47.949 9.792 47.197 9.792C46.541 9.792 46.013 9.96 45.613 10.296C45.229 10.632 45.037 11.12 45.037 11.76C45.037 12.208 45.181 12.584 45.469 12.888C45.773 13.176 46.141 13.416 46.573 13.608C47.021 13.784 47.645 13.992 48.445 14.232C49.533 14.552 50.421 14.872 51.109 15.192C51.797 15.512 52.389 15.992 52.885 16.632C53.381 17.272 53.629 18.112 53.629 19.152C53.629 20.048 53.397 20.88 52.933 21.648C52.469 22.416 51.789 23.032 50.893 23.496C49.997 23.944 48.933 24.168 47.701 24.168ZM62.734 24.216C61.454 24.216 60.302 23.936 59.278 23.376C58.254 22.8 57.446 21.992 56.854 20.952C56.278 19.912 55.99 18.712 55.99 17.352C55.99 15.992 56.286 14.792 56.878 13.752C57.486 12.712 58.31 11.912 59.35 11.352C60.39 10.776 61.55 10.488 62.83 10.488C64.11 10.488 65.27 10.776 66.31 11.352C67.35 11.912 68.166 12.712 68.758 13.752C69.366 14.792 69.67 15.992 69.67 17.352C69.67 18.712 69.358 19.912 68.734 20.952C68.126 21.992 67.294 22.8 66.238 23.376C65.198 23.936 64.03 24.216 62.734 24.216ZM62.734 21.288C63.342 21.288 63.91 21.144 64.438 20.856C64.982 20.552 65.414 20.104 65.734 19.512C66.054 18.92 66.214 18.2 66.214 17.352C66.214 16.088 65.878 15.12 65.206 14.448C64.55 13.76 63.742 13.416 62.782 13.416C61.822 13.416 61.014 13.76 60.358 14.448C59.718 15.12 59.398 16.088 59.398 17.352C59.398 18.616 59.71 19.592 60.334 20.28C60.974 20.952 61.774 21.288 62.734 21.288ZM79.7907 10.512C81.3747 10.512 82.6547 11.016 83.6307 12.024C84.6067 13.016 85.0947 14.408 85.0947 16.2V24H81.7347V16.656C81.7347 15.6 81.4707 14.792 80.9427 14.232C80.4147 13.656 79.6947 13.368 78.7827 13.368C77.8547 13.368 77.1187 13.656 76.5747 14.232C76.0467 14.792 75.7827 15.6 75.7827 16.656V24H72.4227V10.704H75.7827V12.36C76.2307 11.784 76.7987 11.336 77.4867 11.016C78.1907 10.68 78.9587 10.512 79.7907 10.512ZM93.7859 10.488C94.7779 10.488 95.6499 10.688 96.4019 11.088C97.1539 11.472 97.7459 11.976 98.1779 12.6V10.704H101.562V24.096C101.562 25.328 101.314 26.424 100.818 27.384C100.322 28.36 99.5779 29.128 98.5859 29.688C97.5939 30.264 96.3939 30.552 94.9859 30.552C93.0979 30.552 91.5459 30.112 90.3299 29.232C89.1299 28.352 88.4499 27.152 88.2899 25.632H91.6259C91.8019 26.24 92.1779 26.72 92.7539 27.072C93.3459 27.44 94.0579 27.624 94.8899 27.624C95.8659 27.624 96.6579 27.328 97.2659 26.736C97.8739 26.16 98.1779 25.28 98.1779 24.096V22.032C97.7459 22.656 97.1459 23.176 96.3779 23.592C95.6259 24.008 94.7619 24.216 93.7859 24.216C92.6659 24.216 91.6419 23.928 90.7139 23.352C89.7859 22.776 89.0499 21.968 88.5059 20.928C87.9779 19.872 87.7139 18.664 87.7139 17.304C87.7139 15.96 87.9779 14.768 88.5059 13.728C89.0499 12.688 89.7779 11.888 90.6899 11.328C91.6179 10.768 92.6499 10.488 93.7859 10.488ZM98.1779 17.352C98.1779 16.536 98.0179 15.84 97.6979 15.264C97.3779 14.672 96.9459 14.224 96.4019 13.92C95.8579 13.6 95.2739 13.44 94.6499 13.44C94.0259 13.44 93.4499 13.592 92.9219 13.896C92.3939 14.2 91.9619 14.648 91.6259 15.24C91.3059 15.816 91.1459 16.504 91.1459 17.304C91.1459 18.104 91.3059 18.808 91.6259 19.416C91.9619 20.008 92.3939 20.464 92.9219 20.784C93.4659 21.104 94.0419 21.264 94.6499 21.264C95.2739 21.264 95.8579 21.112 96.4019 20.808C96.9459 20.488 97.3779 20.04 97.6979 19.464C98.0179 18.872 98.1779 18.168 98.1779 17.352ZM114.636 15.408C115.58 15.584 116.356 16.056 116.964 16.824C117.572 17.592 117.876 18.472 117.876 19.464C117.876 20.36 117.652 21.152 117.204 21.84C116.772 22.512 116.14 23.04 115.308 23.424C114.476 23.808 113.492 24 112.356 24H105.132V7.248H112.044C113.18 7.248 114.156 7.432 114.972 7.8C115.804 8.168 116.428 8.68 116.844 9.336C117.276 9.992 117.492 10.736 117.492 11.568C117.492 12.544 117.228 13.36 116.7 14.016C116.188 14.672 115.5 15.136 114.636 15.408ZM108.492 14.16H111.564C112.364 14.16 112.98 13.984 113.412 13.632C113.844 13.264 114.06 12.744 114.06 12.072C114.06 11.4 113.844 10.88 113.412 10.512C112.98 10.144 112.364 9.96 111.564 9.96H108.492V14.16ZM111.876 21.264C112.692 21.264 113.324 21.072 113.772 20.688C114.236 20.304 114.468 19.76 114.468 19.056C114.468 18.336 114.228 17.776 113.748 17.376C113.268 16.96 112.62 16.752 111.804 16.752H108.492V21.264H111.876ZM126.745 24.216C125.465 24.216 124.313 23.936 123.289 23.376C122.265 22.8 121.457 21.992 120.865 20.952C120.289 19.912 120.001 18.712 120.001 17.352C120.001 15.992 120.297 14.792 120.889 13.752C121.497 12.712 122.321 11.912 123.361 11.352C124.401 10.776 125.561 10.488 126.841 10.488C128.121 10.488 129.281 10.776 130.321 11.352C131.361 11.912 132.177 12.712 132.769 13.752C133.377 14.792 133.681 15.992 133.681 17.352C133.681 18.712 133.369 19.912 132.745 20.952C132.137 21.992 131.305 22.8 130.249 23.376C129.209 23.936 128.041 24.216 126.745 24.216ZM126.745 21.288C127.353 21.288 127.921 21.144 128.449 20.856C128.993 20.552 129.425 20.104 129.745 19.512C130.065 18.92 130.225 18.2 130.225 17.352C130.225 16.088 129.889 15.12 129.217 14.448C128.561 13.76 127.753 13.416 126.793 13.416C125.833 13.416 125.025 13.76 124.369 14.448C123.729 15.12 123.409 16.088 123.409 17.352C123.409 18.616 123.721 19.592 124.345 20.28C124.985 20.952 125.785 21.288 126.745 21.288ZM143.778 24L141.042 19.872L138.618 24H135.018L139.362 17.328L134.97 10.704H138.762L141.474 14.808L143.922 10.704H147.522L143.154 17.328L147.57 24H143.778Z" fill="white"/>
<rect width="32" height="32" rx="16" fill="white"/>
<path d="M24.4 7.59995V24.4H7.59995V7.59995H24.4ZM24.4 5.19995H7.59995C6.27995 5.19995 5.19995 6.27995 5.19995 7.59995V24.4C5.19995 25.7199 6.27995 26.7999 7.59995 26.7999H24.4C25.7199 26.7999 26.7999 25.7199 26.7999 24.4V7.59995C26.7999 6.27995 25.7199 5.19995 24.4 5.19995Z" fill="black"/>
<path d="M15.5499 11.4625V17.5544C14.8802 17.1696 14.0537 17.02 13.1773 17.3264C12.2226 17.6684 11.4887 18.5162 11.3177 19.5137C11.2386 19.9626 11.2682 20.4238 11.4039 20.8589C11.5395 21.294 11.7774 21.6902 12.0976 22.0146C12.4177 22.3389 12.8109 22.5819 13.2441 22.7232C13.6774 22.8645 14.1382 22.9001 14.5881 22.8269C15.9846 22.606 16.9749 21.3235 16.9749 19.9056V12.8875H18.3999C19.1837 12.8875 19.8249 12.2462 19.8249 11.4625C19.8249 10.6787 19.1837 10.0375 18.3999 10.0375H16.9749C16.1912 10.0375 15.5499 10.6787 15.5499 11.4625Z" fill="black"/>
</svg>
